<svg class="header__logo--text_svg" width="276" height="18" viewBox="0 0 276 18" fill="none" xmlns="http://www.w3.org/2000/svg">
                <path d="M268.029 6.02137L270.014 10.6548H266.044L268.029 6.02137ZM263.452 16.7775L264.941 13.3024H271.227L272.715 16.7775H275.858L269.187 1.16731H267.091L260.42 16.7775H263.562H263.452ZM240.845 16.7775H252.866V14.0747H244.815L252.424 2.93242V1.16731H241.507V3.81497H248.399L240.845 14.9572V16.7223V16.7775ZM228.384 16.7775H231.362V1.16731H228.384V16.7775ZM210.685 14.0747V9.82738H213.662C214.71 9.82738 215.316 10.1032 215.647 10.4893C215.978 10.8754 216.198 11.3719 216.198 11.9235C216.198 12.475 215.978 12.9715 215.647 13.3576C215.261 13.7989 214.71 14.0195 213.662 14.0195H210.685V14.0747ZM210.685 3.81497H212.78C213.717 3.81497 214.158 4.03562 214.434 4.36658C214.71 4.64238 214.875 5.08366 214.875 5.46978C214.875 5.8559 214.71 6.29716 214.434 6.57296C214.103 6.90391 213.717 7.12456 212.78 7.12456H210.685V3.75982V3.81497ZM207.652 1.16731V16.7775H213.717C215.702 16.7775 216.915 16.2259 217.797 15.3985C218.68 14.5711 219.231 13.3576 219.231 12.0338C219.231 10.2687 218.294 8.72418 216.915 8.06227C217.411 7.51067 217.908 6.46265 217.908 5.46978C217.908 4.20111 217.356 3.09791 216.474 2.32568C215.702 1.66376 214.71 1.22248 213 1.22248H207.707L207.652 1.16731ZM194.308 16.7775H197.341V1.16731H194.308V16.7775ZM171.977 3.87014V1.22248H162.604V16.8327H172.198V14.1298H165.636V9.77223H170.433V7.06939H165.636V3.81497H171.977V3.87014ZM139.997 1.22248V16.8327H144.904C147.385 16.8327 148.984 16.2811 150.253 15.3433C152.182 13.9092 153.34 11.5925 153.34 8.99999C153.34 6.40749 152.182 4.09077 150.253 2.65662C148.984 1.71891 147.385 1.16731 144.904 1.16731H139.997V1.22248ZM150.363 8.99999C150.363 10.2687 149.922 11.4822 149.205 12.3647C148.323 13.4679 147.055 14.1298 145.235 14.1298H143.029V3.87014H145.235C147.11 3.87014 148.378 4.53206 149.205 5.63525C149.922 6.51781 150.363 7.73132 150.363 8.99999ZM101.841 8.99999C101.841 13.4128 105.149 16.9982 109.946 16.9982C114.743 16.9982 118.052 13.4128 118.052 8.99999C118.052 4.58722 114.743 1.00184 109.946 1.00184C105.149 1.00184 101.841 4.58722 101.841 8.99999ZM104.874 8.99999C104.874 6.07653 107.079 3.6495 110.001 3.6495C112.924 3.6495 115.129 6.07653 115.129 8.99999C115.129 11.9235 112.924 14.3505 110.001 14.3505C107.079 14.3505 104.874 11.9235 104.874 8.99999ZM79.2341 16.7775H82.2668V6.62813L90.9235 16.7775H93.0188V1.16731H90.0413V11.3167L81.3294 1.16731H79.2341V16.7775ZM65.8906 16.7775H68.8681V1.16731H65.8906V16.7775ZM45.5996 14.6814C47.1986 16.1707 49.1285 16.9982 51.2237 16.9982C54.0358 16.9982 56.517 15.0676 56.517 12.3096C56.517 7.0694 49.349 7.84163 49.349 5.30428C49.349 4.09077 50.6172 3.59435 51.7751 3.59435C52.7676 3.59435 53.8704 4.03562 54.4769 4.64237L56.0208 2.43598C54.5321 1.33279 53.0985 0.946686 51.4994 0.946686C48.9079 0.946686 46.3715 2.54631 46.3715 5.35946C46.3715 7.12457 47.364 8.1726 48.5771 8.88967C50.6724 10.1032 53.5396 10.379 53.5396 12.3647C53.5396 13.5231 52.6022 14.3505 51.2789 14.3505C49.8453 14.3505 48.4668 13.6334 47.5846 12.6405L45.5996 14.6814ZM30.1608 6.07652L32.1458 10.7099H28.1758L30.1608 6.07652ZM25.5843 16.8327L27.073 13.3576H33.3588L34.8476 16.8327H37.9905L31.3187 1.22248H29.2234L22.5517 16.8327H25.6946H25.5843ZM8.16051 3.70467C9.70439 3.70467 11.0277 4.36657 11.9651 5.30428L13.8949 3.26338C12.5165 1.88439 10.5315 1.05699 8.21565 1.05699C3.36345 1.05699 0 4.58721 0 9.05515C0 13.5231 3.41859 17.0533 8.27079 17.0533C11.138 17.0533 13.4538 15.8398 14.8323 14.0747L12.737 12.2544C11.7997 13.4128 10.3661 14.4056 8.32593 14.4056C5.2933 14.4056 3.03262 12.0889 3.03262 9.05515C3.03262 6.02136 5.23817 3.70467 8.21565 3.70467" fill="#A6916A"></path>
            </svg>